<svg id="图层_1" data-name="图层 1" xmlns="http://www.w3.org/2000/svg" xmlns:xlink="http://www.w3.org/1999/xlink" viewBox="0 0 203 91"><defs><style>.cls-1{fill:none;}.cls-2{fill:#fff;}.cls-3{clip-path:url(#clip-path);}.cls-4{fill:#36496d;}.cls-5{fill:#e3a6b6;}.cls-6{fill:#60697b;}.cls-7{font-size:27.84px;fill:#343f52;font-family:FranklinGothic-MediumCond, Franklin Gothic Medium Cond;font-weight:500;letter-spacing:-0.03em;}.cls-8{letter-spacing:0em;}</style><clipPath id="clip-path"><rect class="cls-1" x="25" y="23.5" width="44" height="44"/></clipPath></defs><rect class="cls-2" width="203" height="91" rx="6"/><g class="cls-3"><path class="cls-4" d="M47,67.5A22,22,0,0,1,30.5,30.94a1.29,1.29,0,0,1,1.94,1.71A19.42,19.42,0,1,0,47,26.09,19.16,19.16,0,0,0,38.55,28a1.29,1.29,0,0,1-1.13-2.33A21.76,21.76,0,0,1,47,23.5a22,22,0,0,1,0,44Z"/><path class="cls-5" d="M62.53,45.5A15.53,15.53,0,1,1,47,30,15.53,15.53,0,0,1,62.53,45.5Z"/><path class="cls-4" d="M47,62.32A16.82,16.82,0,1,1,63.82,45.5,16.83,16.83,0,0,1,47,62.32Zm0-31A14.23,14.23,0,1,0,61.23,45.5,14.24,14.24,0,0,0,47,31.27Z"/><path class="cls-4" d="M46.58,50a3.61,3.61,0,0,1-2.52-1l-3.48-3.49a1.29,1.29,0,1,1,1.82-1.83l3.49,3.49a1,1,0,0,0,1.38,0l5.35-5.36a1.29,1.29,0,1,1,1.82,1.83L49.11,49A3.61,3.61,0,0,1,46.58,50Z"/></g><path class="cls-6" d="M86,67V56.92H90.2a2.47,2.47,0,0,1,.38,0,2.79,2.79,0,0,1,1.34.55,2.71,2.71,0,0,1,.83,1.08,3.7,3.7,0,0,1,0,2.87,2.74,2.74,0,0,1-.84,1.09,2.89,2.89,0,0,1-1.33.55l-.38,0H87V67Zm1-4.81h3.13l.33,0a1.77,1.77,0,0,0,.84-.43,1.9,1.9,0,0,0,.5-.75,2.47,2.47,0,0,0,0-1.8,1.87,1.87,0,0,0-.5-.76,1.77,1.77,0,0,0-.84-.43l-.33,0H87ZM94.57,67V59.44h.92v1.82L95.31,61a2.56,2.56,0,0,1,.33-.61,2.47,2.47,0,0,1,1.13-.87,3.08,3.08,0,0,1,.79-.16,2.46,2.46,0,0,1,.73.06v1a2.48,2.48,0,0,0-.91,0,1.72,1.72,0,0,0-.9.39,1.87,1.87,0,0,0-.57.71,3.15,3.15,0,0,0-.25.86,7.07,7.07,0,0,0-.06.91V67Zm8.2.21a3.48,3.48,0,0,1-1.92-.51,3.38,3.38,0,0,1-1.23-1.41,4.92,4.92,0,0,1-.42-2.08,4.68,4.68,0,0,1,.43-2.08,3.35,3.35,0,0,1,1.23-1.4,3.6,3.6,0,0,1,1.91-.5,3.55,3.55,0,0,1,1.94.51,3.29,3.29,0,0,1,1.22,1.41,4.66,4.66,0,0,1,.43,2.06,4.8,4.8,0,0,1-.43,2.1,3.28,3.28,0,0,1-1.23,1.4A3.62,3.62,0,0,1,102.77,67.21Zm0-1a2.17,2.17,0,0,0,1.88-.83,3.61,3.61,0,0,0,.62-2.18,3.47,3.47,0,0,0-.63-2.18,2.19,2.19,0,0,0-1.87-.81,2.46,2.46,0,0,0-1.4.38,2.29,2.29,0,0,0-.81,1.06,4.13,4.13,0,0,0-.27,1.55,3.52,3.52,0,0,0,.63,2.19A2.18,2.18,0,0,0,102.77,66.22Zm4.15,4.14v-1h.43a1.17,1.17,0,0,0,.81-.27,1.07,1.07,0,0,0,.31-.88V59.44h1v9a2,2,0,0,1-.45,1.41,1.84,1.84,0,0,1-1.38.47ZM108.47,58V56.85h1V58Zm6.42,9.2a3.6,3.6,0,0,1-1.91-.49,3.37,3.37,0,0,1-1.26-1.38,4.68,4.68,0,0,1-.44-2.08,4.8,4.8,0,0,1,.44-2.15A3.23,3.23,0,0,1,113,59.72a3.5,3.5,0,0,1,1.89-.49,3.35,3.35,0,0,1,1.91.52,3.14,3.14,0,0,1,1.2,1.47,5.38,5.38,0,0,1,.37,2.29h-1v-.37a3.56,3.56,0,0,0-.64-2.22,2.11,2.11,0,0,0-1.76-.75A2.29,2.29,0,0,0,113,61a4.22,4.22,0,0,0,0,4.47,2.27,2.27,0,0,0,1.84.78,2.64,2.64,0,0,0,1.42-.37,2.67,2.67,0,0,0,1-1.08l1,.37a3.3,3.3,0,0,1-1.32,1.53A3.64,3.64,0,0,1,114.89,67.21ZM112,63.51v-.86h5.78v.86Zm11.16,3.7a3.49,3.49,0,0,1-1.93-.51,3.19,3.19,0,0,1-1.2-1.41,4.84,4.84,0,0,1-.42-2.07,4.9,4.9,0,0,1,.43-2.09,3.24,3.24,0,0,1,1.21-1.4,3.87,3.87,0,0,1,3.91.06,2.8,2.8,0,0,1,1.17,1.53l-1,.33a2.06,2.06,0,0,0-.84-1,2.27,2.27,0,0,0-1.32-.38,2.41,2.41,0,0,0-1.38.38,2.29,2.29,0,0,0-.81,1.06,4.18,4.18,0,0,0-.27,1.56,3.62,3.62,0,0,0,.63,2.18,2.13,2.13,0,0,0,1.83.82,2.29,2.29,0,0,0,1.31-.35,2.2,2.2,0,0,0,.83-1l1,.3a3.24,3.24,0,0,1-1.23,1.54A3.42,3.42,0,0,1,123.16,67.21ZM132,67a5.37,5.37,0,0,1-1.26.11,2.74,2.74,0,0,1-1.1-.27,1.66,1.66,0,0,1-.74-.74,2.23,2.23,0,0,1-.22-.85c0-.29,0-.62,0-1V57.34h1V65a1.26,1.26,0,0,0,.15.56,1.05,1.05,0,0,0,.8.56,4.25,4.25,0,0,0,1.36,0Zm-5-6.68v-.88h5v.88Zm9.4,6.88a3.92,3.92,0,0,1-2.19-.57,2.39,2.39,0,0,1-1-1.6l1-.17a1.71,1.71,0,0,0,.77,1,2.73,2.73,0,0,0,1.48.37,2.29,2.29,0,0,0,1.36-.35,1.16,1.16,0,0,0,.5-1,.94.94,0,0,0-.17-.57,1.36,1.36,0,0,0-.63-.41c-.33-.13-.81-.27-1.45-.45a9.14,9.14,0,0,1-1.61-.56,2,2,0,0,1-.82-.64,1.64,1.64,0,0,1-.25-.9,1.85,1.85,0,0,1,.37-1.13,2.32,2.32,0,0,1,1-.76,3.78,3.78,0,0,1,1.49-.27,3.9,3.9,0,0,1,1.53.28,2.66,2.66,0,0,1,1.09.77,2.12,2.12,0,0,1,.49,1.16l-1,.18a1.53,1.53,0,0,0-.66-1,2.47,2.47,0,0,0-1.41-.4,2.2,2.2,0,0,0-1.31.31,1,1,0,0,0-.5.86.76.76,0,0,0,.18.51,1.63,1.63,0,0,0,.66.4,11.2,11.2,0,0,0,1.37.42,8.11,8.11,0,0,1,1.64.56,1.92,1.92,0,0,1,.84.69,1.8,1.8,0,0,1,.26,1,2,2,0,0,1-.8,1.68A3.5,3.5,0,0,1,136.48,67.2Zm7.62-.2V56.92h3.61a6,6,0,0,1,.75,0,3.54,3.54,0,0,1,1.91.86,4.24,4.24,0,0,1,1.16,1.76,7.52,7.52,0,0,1,0,4.72,4.24,4.24,0,0,1-1.16,1.76,3.54,3.54,0,0,1-1.91.86l-.75,0H144.1Zm1.06-1h2.62a4,4,0,0,0,.57-.07,2.45,2.45,0,0,0,1.42-.72,3.33,3.33,0,0,0,.8-1.4,7,7,0,0,0,0-3.71,3.33,3.33,0,0,0-.8-1.4,2.53,2.53,0,0,0-1.42-.71,4.16,4.16,0,0,0-.58-.06c-.23,0-.43,0-.61,0h-2Zm11.64,1.2a3.48,3.48,0,0,1-1.92-.51,3.38,3.38,0,0,1-1.23-1.41,4.92,4.92,0,0,1-.42-2.08,4.68,4.68,0,0,1,.43-2.08,3.35,3.35,0,0,1,1.23-1.4,3.6,3.6,0,0,1,1.91-.5,3.53,3.53,0,0,1,1.94.51A3.29,3.29,0,0,1,160,61.15a4.66,4.66,0,0,1,.43,2.06,4.8,4.8,0,0,1-.43,2.1,3.28,3.28,0,0,1-1.23,1.4A3.62,3.62,0,0,1,156.8,67.21Zm0-1a2.16,2.16,0,0,0,1.88-.83,3.61,3.61,0,0,0,.62-2.18,3.47,3.47,0,0,0-.63-2.18,2.19,2.19,0,0,0-1.87-.81,2.46,2.46,0,0,0-1.4.38,2.29,2.29,0,0,0-.81,1.06,4.13,4.13,0,0,0-.27,1.55A3.52,3.52,0,0,0,155,65.4,2.18,2.18,0,0,0,156.8,66.22Zm10.73.78V63.14a5.14,5.14,0,0,0-.12-1.15,2.68,2.68,0,0,0-.38-.93,1.74,1.74,0,0,0-.68-.61,2.09,2.09,0,0,0-1-.22,2.25,2.25,0,0,0-1,.19,1.89,1.89,0,0,0-.7.55,2.35,2.35,0,0,0-.43.85A4.06,4.06,0,0,0,163.1,63l-.73-.16a4.28,4.28,0,0,1,.41-2,2.81,2.81,0,0,1,1.12-1.19,3.27,3.27,0,0,1,1.64-.41,3.07,3.07,0,0,1,1.18.21,2.49,2.49,0,0,1,.86.57,3,3,0,0,1,.58.82,4.23,4.23,0,0,1,.31,1,5,5,0,0,1,.1,1V67Zm-5.46,0V59.44H163V61.3h.1V67Zm11.61.21a3.66,3.66,0,0,1-1.92-.49,3.41,3.41,0,0,1-1.25-1.38,4.55,4.55,0,0,1-.45-2.08,4.8,4.8,0,0,1,.45-2.15,3.27,3.27,0,0,1,1.23-1.39,3.56,3.56,0,0,1,1.9-.49,3.37,3.37,0,0,1,1.91.52,3.14,3.14,0,0,1,1.2,1.47,5.54,5.54,0,0,1,.37,2.29h-1.05v-.37a3.56,3.56,0,0,0-.64-2.22,2.12,2.12,0,0,0-1.76-.75,2.28,2.28,0,0,0-1.87.8,4.22,4.22,0,0,0,0,4.47,2.26,2.26,0,0,0,1.84.78,2.6,2.6,0,0,0,1.41-.37,2.53,2.53,0,0,0,1-1.08l1,.37a3.35,3.35,0,0,1-1.32,1.53A3.64,3.64,0,0,1,173.68,67.21Zm-2.89-3.7v-.86h5.78v.86Z"/><text class="cls-7" transform="translate(85.98 46.7) scale(1.1 1)">1<tspan class="cls-8" x="13.29" y="0">0+</tspan></text></svg>