<?xml version="1.0" encoding="utf-8"?>
<!-- Generator: Adobe Illustrator 16.0.0, SVG Export Plug-In . SVG Version: 6.00 Build 0)  -->
<!DOCTYPE svg PUBLIC "-//W3C//DTD SVG 1.1//EN" "http://www.w3.org/Graphics/SVG/1.1/DTD/svg11.dtd">
<svg version="1.1" id="レイヤー_1" xmlns="http://www.w3.org/2000/svg" xmlns:xlink="http://www.w3.org/1999/xlink" x="0px"
	 y="0px" width="330.88px" height="65.197px" viewBox="0 0 330.88 65.197" enable-background="new 0 0 330.88 65.197"
	 xml:space="preserve">
<g>
	<path fill="#0068B7" d="M18.727,13.061h6.965l-6.238,17.065h7.542l6.287-17.065c4.156,0,7.436-4.18,11.363-13.061
		c0.086,0.218-10.783,30.126-10.783,30.126c8.838,0.285,16.723,2.734,8.984,11.398c-7.061,6.74-21.471,10.589-23.793,10.589
		l6.201-16.866h-7.592l-6.142,16.932c-2.514,0-7.46,4.967-11.521,13.018L18.727,13.061z M28.726,43.975
		c1.645,0,5.898-2.549,7.496-3.718c3.82-2.802,3.879-5.01-4.197-5.01L28.726,43.975z"/>
	<g>
		<path fill="#231815" d="M62.251,25.175v-6.408l3.389,0.194c-0.027,0.222-0.223,0.389-0.666,0.472v24.553h-2.723v-6.104
			c-2.307,0.999-4.584,1.942-6.195,2.58c0,0.25-0.166,0.444-0.361,0.527l-1.334-2.94c1.973-0.639,4.945-1.721,7.891-2.83v-7.408
			h-6.973v-2.636H62.251z M71.919,39.296c0,1.525,0.193,1.775,1.332,1.775h3.611c1.223,0,1.391-1.193,1.584-5.798
			c0.668,0.526,1.777,1.054,2.529,1.22c-0.279,5.244-0.973,7.158-3.891,7.158h-4.193c-2.863,0-3.725-0.971-3.725-4.411V18.767
			l3.418,0.222c-0.027,0.222-0.223,0.389-0.666,0.444v8.295c2.389-1.471,4.777-3.246,6.445-4.716l2.082,2.441
			c-0.111,0.111-0.332,0.194-0.639,0.139c-2.027,1.554-5,3.301-7.889,4.883V39.296z"/>
		<path fill="#231815" d="M101.003,28.005h-3.111c-0.305,2.83-1.223,4.911-4.805,6.103c-0.168-0.415-0.557-0.999-0.945-1.442
			c0.055,0.333,0.084,0.638,0.084,0.97c0,4.162-2.557,4.245-4.807,4.134c-0.027-0.665-0.277-1.664-0.584-2.274
			c0.334,0.027,0.641,0.055,0.945,0.055c1.166,0,1.973,0,1.973-2.135c0-1.388-0.666-3.164-2.557-5.188
			c0.723-1.914,1.445-4.467,1.973-6.381h-3.139v22.416h-2.473V19.46h6.668l0.416-0.083l1.695,0.943
			c-0.029,0.111-0.111,0.25-0.223,0.333c-0.668,2.164-1.668,5.049-2.557,7.269c1.389,1.554,2.141,2.914,2.473,4.162
			c2.418-0.777,3.195-2.025,3.473-4.078h-3.777V25.73h6.695v-2.691h-5.279v-2.192h5.279v-2.524l3.277,0.167
			c-0.027,0.25-0.223,0.388-0.666,0.471v1.887h5.5v2.192h-5.5v2.691h7.027v2.275h-4.695v2.192c0,0.61,0.084,0.666,0.611,0.666h1.668
			c0.5,0,0.611-0.195,0.666-1.915c0.443,0.333,1.418,0.693,2.055,0.832c-0.248,2.552-0.859,3.19-2.416,3.19h-2.334
			c-2.166,0-2.611-0.638-2.611-2.719V28.005z M101.033,41.238h7.361v2.359H90.726v-2.359h7.695v-3.245h-5.529v-2.275h5.529v-2.913
			l3.277,0.166c-0.027,0.25-0.223,0.388-0.666,0.472v2.274h5.721v2.275h-5.721V41.238z"/>
		<path fill="#231815" d="M121.783,30.835v-6.187h-8.361v3.718h-2.361v-5.549h10.723v-1.442h-8.973v-1.998h20.613v1.998h-9.084
			v1.442h10.916v5.549h-2.443v-3.718h-8.473v6.187H121.783z M124.171,40.323c0,1.47,0,1.692,2.084,1.692h5.891
			c1.443,0,1.721-0.472,1.889-3.107c0.527,0.389,1.527,0.75,2.221,0.86c-0.332,3.413-1.082,4.3-3.943,4.3h-6.223
			c-4.141,0-4.445-1.055-4.445-3.745h-5.557v1.359h-2.527v-9.987h19.225v8.628H124.171z M114.199,30.28v-1.526h6.334v1.526H114.199z
			 M114.755,25.924h5.75v1.526h-5.75V25.924z M121.644,33.526h-5.557v1.665h5.557V33.526z M116.087,38.492h5.557v-1.664h-5.557
			V38.492z M130.201,35.191v-1.665h-6.029v1.665H130.201z M124.171,38.492h6.029v-1.664h-6.029V38.492z M125.644,25.924h5.807v1.526
			h-5.807V25.924z M125.644,30.28v-1.526h6.502v1.526H125.644z"/>
		<path fill="#231815" d="M137.894,25.12v-2.108h10.529v2.108H137.894z M147.646,34.718v8.323h-6.223v1.193h-2.25v-9.517H147.646z
			 M147.507,26.951v2.053h-8.279v-2.053H147.507z M139.228,32.86v-2.053h8.279v2.053H139.228z M147.507,19.21v2.053h-8.111V19.21
			H147.507z M145.367,36.828h-3.943v4.078h3.943V36.828z M164.148,29.032h-6.391v4.161h5.084v10.931h-2.611v-1.249h-7.473v1.388
			h-2.5V33.193h4.777v-4.161h-6.416v-2.497h6.416v-4.023c-1.75,0.278-3.527,0.5-5.195,0.666c-0.109-0.638-0.471-1.637-0.777-2.219
			c4.279-0.472,9.168-1.332,12.057-2.358l2.084,2.219c-0.111,0.111-0.25,0.111-0.639,0.111c-1.334,0.417-3,0.805-4.807,1.138v4.467
			h6.391V29.032z M160.23,40.49v-4.911h-7.473v4.911H160.23z"/>
		<path fill="#231815" d="M180.064,39.546h11.168v2.635h-25.029v-2.635h11.029V23.982h-9.668v-2.663h22.391v2.663h-9.891V39.546z"/>
		<path fill="#231815" d="M219.345,34.386v2.08H216.4v4.938h-2.666v-1.221h-6.027v1.332c0,2.636-1.307,2.802-6.168,2.802
			c-0.141-0.639-0.529-1.582-0.889-2.137c0.777,0.027,1.582,0.027,2.277,0.027c1.889,0,2.111,0,2.111-0.692v-1.332h-8.861v-1.97
			h8.861v-1.748h-11.334v-2.08h11.334v-1.609h-8.611v-1.859h8.611V29.42h-7.861v-5.604h7.861v-1.36h-10.75V20.32h10.75v-2.081
			l3.334,0.167c-0.029,0.25-0.195,0.416-0.666,0.5v1.415h11.027v2.136h-11.027v1.36h8.25v5.604h-8.25v1.498h8.693v3.468H219.345z
			 M199.705,27.672h5.334v-2.108h-5.334V27.672z M213.289,25.563h-5.582v2.108h5.582V25.563z M207.707,32.777v1.609h6.027v-1.609
			H207.707z M213.734,38.214v-1.748h-6.027v1.748H213.734z"/>
		<path fill="#231815" d="M227.902,28.449c0.832,1.054,3.082,4.384,3.611,5.188l-1.473,1.971c-0.416-0.943-1.334-2.553-2.139-3.967
			v12.595h-2.445V32.139c-0.889,2.747-2.027,5.327-3.223,6.992c-0.25-0.722-0.861-1.748-1.277-2.359
			c1.75-2.33,3.416-6.519,4.277-10.153h-3.611v-2.441h3.834v-5.909l3.084,0.167c-0.029,0.222-0.223,0.388-0.639,0.444v5.299h3.277
			v2.441h-3.277V28.449z M247.042,32.36h-5.307c1.611,2.858,3.973,5.771,6.027,7.436c-0.639,0.471-1.5,1.414-2,2.107
			c-1.75-1.72-3.693-4.494-5.223-7.352v9.683h-2.611V34.83c-1.666,3.024-3.889,5.826-6.111,7.547
			c-0.416-0.639-1.25-1.555-1.834-2.025c2.557-1.721,5.168-4.828,6.834-7.991h-5.723v-2.441h6.834v-4.384h-3.223
			c-0.416,1.332-0.916,2.608-1.5,3.662c-0.555-0.361-1.527-0.86-2.139-1.082c1.361-2.386,2.223-6.131,2.584-8.906l3,0.638
			c-0.084,0.195-0.277,0.333-0.639,0.333c-0.168,0.86-0.361,1.859-0.641,2.913h2.557v-4.827l3.25,0.167
			c-0.027,0.25-0.221,0.388-0.639,0.472v4.189h5.723v2.441h-5.723v4.384h6.502V32.36z"/>
		<path fill="#231815" d="M274.626,25.869h-7.945c0.611,8.351,2.529,15.592,5.002,15.619c0.721,0,1.082-1.581,1.25-5.215
			c0.582,0.609,1.555,1.303,2.305,1.553c-0.445,5.133-1.418,6.465-3.777,6.465c-4.695-0.028-6.863-8.573-7.584-18.422h-14.363v-2.58
			h14.223c-0.082-1.609-0.137-3.246-0.137-4.883l3.611,0.194c-0.029,0.25-0.252,0.416-0.723,0.499c-0.027,1.387,0,2.802,0.055,4.189
			h8.084V25.869z M257.875,32.111v7.24c1.861-0.359,3.807-0.748,5.695-1.137l0.195,2.303c-4.639,1.082-9.584,2.191-12.723,2.857
			c-0.029,0.25-0.225,0.389-0.445,0.443l-1-2.94c1.527-0.249,3.473-0.61,5.639-1.026v-7.74h-4.695v-2.469h12.197v2.469H257.875z
			 M269.792,18.323c1.361,0.916,3.084,2.302,3.918,3.273l-1.861,1.609c-0.779-0.971-2.445-2.441-3.834-3.44L269.792,18.323z"/>
		<path fill="#231815" d="M283.154,29.281v-2.025c-1.527,1.11-3.223,2.136-4.916,2.968c-0.334-0.61-1-1.609-1.557-2.164
			c4.861-2.22,9.529-6.326,11.668-9.821l3.639,0.194c-0.055,0.222-0.305,0.416-0.639,0.472c2.639,3.606,7.475,7.019,11.779,8.711
			c-0.639,0.666-1.223,1.609-1.695,2.386c-1.639-0.777-3.361-1.803-5-2.941v2.22H283.154z M278.292,34.691v-2.469h23.252v2.469
			h-13.223l0.611,0.194c-0.111,0.222-0.361,0.333-0.75,0.333c-0.695,1.581-1.695,3.635-2.723,5.383
			c3.223-0.084,6.834-0.195,10.391-0.307c-1.084-1.248-2.279-2.524-3.445-3.551l2.277-1.221c2.555,2.191,5.252,5.188,6.557,7.297
			l-2.416,1.498c-0.334-0.555-0.752-1.221-1.25-1.887c-6.502,0.361-13.336,0.666-17.67,0.86c-0.055,0.249-0.25,0.36-0.471,0.416
			l-0.945-2.968c1.166-0.028,2.555-0.028,4.084-0.084c0.971-1.775,2.027-4.078,2.723-5.965H278.292z M296.128,26.839
			c-2.557-1.803-4.861-3.939-6.391-5.992c-1.332,1.97-3.471,4.106-6,5.992H296.128z"/>
		<path fill="#231815" d="M316.378,24.371c-0.055,0.167-0.221,0.277-0.389,0.361c-0.889,2.219-2.193,4.411-3.695,6.381
			c1.363,0.916,3.834,2.747,4.529,3.274l-1.555,2.164c-0.723-0.75-2.113-2.025-3.334-3.08v10.792h-2.611v-9.765
			c-1.223,1.192-2.529,2.246-3.807,3.078c-0.25-0.693-0.916-1.941-1.334-2.441c3.334-1.941,6.695-5.465,8.613-9.238h-7.836v-2.414
			h4.363v-5.215l3.25,0.194c-0.027,0.222-0.195,0.388-0.639,0.471v4.55h2.305l0.416-0.111L316.378,24.371z M324.546,40.85h6.334
			v2.607H314.99V40.85h6.863V29.78h-5.725v-2.58h5.725v-8.711l3.359,0.222c-0.027,0.222-0.221,0.388-0.666,0.444v8.046h5.695v2.58
			h-5.695V40.85z"/>
	</g>
</g>
</svg>
