<svg id="marks" data-name="marks" xmlns="http://www.w3.org/2000/svg" viewBox="0 0 154.39 26.92"><defs><style>.cls-1{fill:#231815;}</style></defs><title>MARK'S</title><polygon class="cls-1" points="0 6.12 4.32 6.12 16.27 23.25 28.2 6.12 32.52 6.12 32.52 26.55 29.75 26.55 29.75 8.6 29.7 8.6 17.25 26.55 15.27 26.55 2.82 8.6 2.77 8.6 2.77 26.55 0 26.55 0 6.12"/><path class="cls-1" d="M130.91,20.26h2.59V21.7c0,2,1.08,3,4.52,3h8.58c4,0,5.2-.85,5.2-3.78,0-2.58-1-3.23-4.47-3.23h-5.24c-8.45,0-11.22-.51-11.22-5.92,0-4.66,2.77-5.7,8.47-5.7h6c6.86,0,8.59,1.74,8.59,5.38v.71h-2.6c-.06-3.24-.4-3.83-7.65-3.83H140.7c-5.33,0-7.22.28-7.22,3.63,0,2.43.76,3.26,5.08,3.26h8.18c5.39,0,7.65,1.54,7.65,5v1.32c0,5-4.12,5.39-8.22,5.39H138.5c-4,0-7.59-.7-7.59-5.16Z"/><polygon class="cls-1" points="51.36 6.26 47.92 6.26 35.78 26.7 38.91 26.7 49.64 8.52 60.37 26.7 63.5 26.7 51.36 6.26"/><path class="cls-1" d="M89.63,11.35C89.5,8,88.33,6.26,82.81,6.26H66.47V26.71h2.76v-9h13.5c2.51,0,4.06.41,4.06,3.59v5.43h2.6V20.54c0-1.86-.68-3.33-3.5-3.83v-.06c2.11-.2,3.75-1,3.75-3.87V11.35Zm-2.75,1.12c0,2.15-1.31,3-4.38,3H69.23V8.52h12.6c4.06,0,5,.73,5,3Z"/><polygon class="cls-1" points="120.27 6.3 120.22 6.24 115.7 6.24 102.1 15.45 98.86 15.45 98.86 6.24 96.1 6.24 96.1 26.71 98.86 26.71 98.86 17.71 101.88 17.71 115.15 26.71 120.02 26.71 120.08 26.65 104.84 16.61 120.27 6.3"/><rect class="cls-1" x="123.63" width="2.5" height="12.49"/></svg>