<svg id="a" xmlns="http://www.w3.org/2000/svg" viewBox="0 0 272 34.64"><defs><style>.b{fill:#0046ff}</style></defs><path d="M51.32 5.77h5.48l6.07 9.77 6.07-9.77h5.48v23.1h-5.01V13.79l-6.5 9.86h-.13l-6.43-9.77v14.98h-5.02V5.77zm116.58 4.69h-6.64V5.77h18.37v4.68h-6.64v18.42h-5.08V10.46zm-37.94-4.69h4.65l9.83 23.09h-5.27l-2.1-5.14h-9.7l-2.1 5.14h-5.14l9.83-23.09zm5.31 13.5l-3.05-7.44-3.05 7.44h6.09zm-24.46 1.82c3.17-.87 4.63-3.27 4.63-7.46v-.24c0-.25-.01-.48-.03-.72v-.04c0-.05-.01-.1-.02-.15-.33-4.62-2.78-6.72-7.81-6.72-.16 0-.31 0-.46.01-.13 0-.26-.01-.39-.01H96.17v23.11h5.08v-7.39h3.99l4.95 7.39h5.94l-5.32-7.78zm-3.54-4.15h-6.01v-6.63h6.01c2.29 0 3.32 1.03 3.32 3.32s-1.03 3.32-3.32 3.32zM82.75 5.77h5.08v23.1h-5.08V5.77zm66.75 0h5.08v23.1h-5.08V5.77zm72.98 0h4.68l12.11 14.73V5.77h5.01v23.1h-4.32L227.49 13.8v15.07h-5.01V5.77z"/><path class="b" d="M203.36 5.13c-8.41 0-12.19 3.77-12.19 12.19s3.77 12.19 12.19 12.19 12.19-3.77 12.19-12.19-3.77-12.19-12.19-12.19zm0 19.25c-4.65 0-6.74-2.19-6.74-7.06s2.09-7.06 6.74-7.06 6.74 2.19 6.74 7.06-2.09 7.06-6.74 7.06z"/><path d="M252.63 5.77H272v4.52h-14.36v4.68h10.89v4.52h-10.89v4.85H272v4.52h-19.37V5.77z"/><path class="b" d="M22.52 3.71v27.22c4.3.57 8.38 1.85 12.12 3.71V0a38.581 38.581 0 01-12.12 3.71zm-10.4 27.22V3.71C7.82 3.14 3.74 1.86 0 0v34.64c3.74-1.86 7.82-3.14 12.12-3.71z"/></svg>