<svg xmlns="http://www.w3.org/2000/svg" width="190" height="56" viewBox="0 0 190 56"><rect width="190" height="56" fill="none"/><g transform="translate(-128 -34.613)"><path d="M668.282,43.022c.7-.995,2.318-3.4,7.043-3.4a7.987,7.987,0,0,1,5.8,1.988c2.034,1.986,2.157,4.845,2.157,6.459V61.627h-8.538V49.9c0-1.079-.04-3.229-2.9-3.229-3.03,0-3.114,2.363-3.114,3.519V61.627H660.2V40.159h8.081Z" transform="translate(-532.149 2.246)" fill="#0096af"/><path d="M681.565,41.805H690.1V63.273h-8.539Zm0-7.79H690.1V39.7h-8.539Z" transform="translate(-525.876 0.598)" fill="#0096af"/><path d="M691.657,34.015h8.577V47.94l5.8-6.134h10.442l-8.163,7.75,8.537,13.718h-9.741l-4.68-8.16-2.234,2.15v6.01h-8.539Z" transform="translate(-523.179 0.598)" fill="#0096af"/><path d="M713.152,34.015h8.577V47.94l5.8-6.134h10.442l-8.165,7.75,8.537,13.718h-9.736l-4.687-8.16-2.233,2.15v6.01h-8.537Z" transform="translate(-517.05 0.598)" fill="#0096af"/><path d="M740.9,50.9c0,2.072.5,5.676,3.98,5.676,2.979,0,3.934-2.53,3.934-5.759,0-1.287-.08-5.595-3.975-5.475-3.232.083-3.939,3.151-3.939,5.557m13.181-8.458a12.137,12.137,0,0,1,3.356,8.582c0,6.75-4.685,11.521-12.8,11.521-8.661,0-12.227-5.64-12.227-11.4,0-7.048,4.768-11.853,12.681-11.813,4.35.04,7.336,1.538,8.995,3.106" transform="translate(-511.56 2.16)" fill="#0096af"/><path d="M769.56,52.508c-.7.166-1.446.33-2.2.581-1.658.664-1.737,1.652-1.737,1.907,0,.581.492,1.656,2.109,1.656a4.616,4.616,0,0,0,3.936-2.445,5.746,5.746,0,0,0,.417-2.529c-.829.288-1.66.583-2.529.831m-11.106-5.846a6.968,6.968,0,0,1,3.852-5.719,17.461,17.461,0,0,1,7.71-1.449c10.192,0,10.192,5.268,10.192,7.834V59.01a3.514,3.514,0,0,0,.749,2.656h-8.414V60.01a11.182,11.182,0,0,1-7.085,2.154c-5.389,0-7.753-3.274-7.753-6.916a6.293,6.293,0,0,1,1.824-4.6c1.947-1.991,4.27-2.323,8.042-2.821a27.813,27.813,0,0,0,4.556-.912c-.04-1.444-.457-2.441-2.9-2.441-1.947,0-2.484.5-2.772,1.987Z" transform="translate(-504.335 2.207)" fill="#eab818"/><path d="M786.758,43.258c.662-1.075,2.113-3.6,6.794-3.6a11.42,11.42,0,0,1,3.278.494,6.271,6.271,0,0,1,4.184,3.525c.621-1.409,2.565-4.019,7.46-4.019a8.457,8.457,0,0,1,5.962,2.158c1.949,1.9,1.992,4.221,2.035,6.251V61.617h-8.539V50.391c0-1.366-.043-3.695-2.984-3.695-3.106,0-3.145,2.533-3.145,3.485V61.66h-8.539v-11.6a6.549,6.549,0,0,0-.12-1.243,2.758,2.758,0,0,0-2.864-2.116,3.292,3.292,0,0,0-2.319.877,3.224,3.224,0,0,0-.831,2.4V61.66H778.6V40.192h8.161Z" transform="translate(-498.471 2.254)" fill="#eab818"/><path d="M660.161,77.006V64.97h2.5l3.106,5.16a32.985,32.985,0,0,1,2.052,4.036h.039c-.142-1.612-.2-3.164-.2-5v-4.2H669.7V77.006h-2.273l-3.14-5.3a40.365,40.365,0,0,1-2.16-4.142l-.052.018c.089,1.552.107,3.142.107,5.12v4.308Z" transform="translate(-532.161 9.37)" fill="#0096af"/><path d="M669.264,68.373h2.213v8.7h-2.213Zm2.338-2.429a1.159,1.159,0,0,1-1.252,1.173,1.146,1.146,0,0,1-1.212-1.173,1.233,1.233,0,0,1,2.464,0" transform="translate(-529.525 9.306)" fill="#0096af"/><path d="M674.737,72.279h.038c.212-.34.464-.713.695-1.021l2.107-2.8h2.643l-3.212,3.551,3.678,5.145h-2.695l-2.5-3.839-.749.871v2.969h-2.2V64.471h2.2Z" transform="translate(-528.527 9.224)" fill="#0096af"/><path d="M681.72,72.279h.036c.213-.34.464-.713.7-1.021l2.106-2.8H687.2l-3.213,3.551,3.675,5.145H684.97l-2.5-3.839-.748.871v2.969h-2.193V64.471h2.193Z" transform="translate(-526.475 9.224)" fill="#0096af"/><path d="M687.966,71.953c0,1.677.819,2.948,2.156,2.948,1.252,0,2.123-1.239,2.123-2.986,0-1.354-.6-2.907-2.106-2.907-1.548,0-2.173,1.5-2.173,2.944m6.55-.091a4.307,4.307,0,0,1-4.464,4.627A4.2,4.2,0,0,1,685.7,72a4.294,4.294,0,0,1,4.5-4.607,4.169,4.169,0,0,1,4.321,4.464" transform="translate(-524.86 10.083)" fill="#0096af"/><path d="M702.811,71.936l-.946-2.97c-.232-.726-.428-1.55-.607-2.247h-.036c-.18.7-.356,1.537-.571,2.247l-.927,2.97Zm-3.445,1.657-1.037,3.413h-2.267l3.855-12.036h2.808l3.907,12.036h-2.357l-1.088-3.413Z" transform="translate(-521.899 9.37)" fill="#0096af"/><path d="M705.371,74.274a4.885,4.885,0,0,0,2.232.626c.965,0,1.393-.395,1.393-.966,0-.59-.357-.889-1.424-1.266-1.7-.591-2.414-1.519-2.4-2.535,0-1.539,1.266-2.733,3.287-2.733a5.058,5.058,0,0,1,2.3.519l-.427,1.552a3.935,3.935,0,0,0-1.837-.5c-.79,0-1.213.373-1.213.911s.406.825,1.512,1.217c1.576.57,2.31,1.374,2.326,2.656,0,1.576-1.233,2.736-3.534,2.736a5.59,5.59,0,0,1-2.647-.629Z" transform="translate(-519.352 10.083)" fill="#0096af"/><path d="M710.812,74.274a4.866,4.866,0,0,0,2.232.626c.962,0,1.392-.395,1.392-.966,0-.59-.357-.889-1.428-1.266-1.7-.591-2.41-1.519-2.395-2.535,0-1.539,1.272-2.733,3.286-2.733a5.1,5.1,0,0,1,2.305.519l-.428,1.552a3.952,3.952,0,0,0-1.841-.5c-.788,0-1.212.373-1.212.911s.409.825,1.515,1.217c1.569.57,2.3,1.374,2.326,2.656,0,1.576-1.238,2.736-3.539,2.736a5.6,5.6,0,0,1-2.643-.629Z" transform="translate(-517.797 10.083)" fill="#0096af"/><path d="M721.842,71.021a1.865,1.865,0,0,0-1.8-2.122,2.15,2.15,0,0,0-2.015,2.122Zm-3.82,1.538c.054,1.57,1.287,2.251,2.679,2.251a6.536,6.536,0,0,0,2.409-.392l.321,1.516a8.134,8.134,0,0,1-3.034.555,4.129,4.129,0,0,1-4.482-4.414c0-2.4,1.464-4.678,4.248-4.678,2.842,0,3.755,2.322,3.755,4.233a5.382,5.382,0,0,1-.075.929Z" transform="translate(-516.218 10.083)" fill="#0096af"/><path d="M726,65.828v2.23h2.09V69.7H726v3.839c0,1.052.285,1.608,1.127,1.608a2.737,2.737,0,0,0,.855-.107l.037,1.677a4.752,4.752,0,0,1-1.59.234,2.561,2.561,0,0,1-1.893-.733,3.48,3.48,0,0,1-.679-2.432V69.7H722.6V68.058h1.251V66.45Z" transform="translate(-514.299 9.622)" fill="#0096af"/><path d="M741.2,72.095c-.074-1.552-.164-3.428-.144-5.072H741c-.4,1.482-.893,3.107-1.433,4.625l-1.746,5.216h-1.7L734.52,71.72c-.464-1.537-.891-3.177-1.216-4.7h-.036c-.052,1.582-.122,3.5-.213,5.142l-.269,4.842h-2.05l.8-12.036h2.894L736,69.807c.429,1.415.8,2.837,1.11,4.18h.053c.317-1.307.73-2.781,1.193-4.2l1.665-4.82h2.852l.7,12.036h-2.144Z" transform="translate(-511.995 9.371)" fill="#0096af"/><path d="M746.923,72.044c-1.556-.039-3.04.3-3.04,1.622a1.153,1.153,0,0,0,1.251,1.254,1.788,1.788,0,0,0,1.715-1.2,1.553,1.553,0,0,0,.074-.475Zm2.136,2.159a14.708,14.708,0,0,0,.125,2.091H747.2l-.146-.964h-.052a3.239,3.239,0,0,1-2.572,1.16A2.583,2.583,0,0,1,741.7,73.9c0-2.194,1.946-3.3,5.162-3.287v-.137c0-.577-.229-1.525-1.766-1.525a4.577,4.577,0,0,0-2.34.647l-.431-1.432a6.306,6.306,0,0,1,3.147-.767c2.783,0,3.583,1.77,3.583,3.662Z" transform="translate(-508.842 10.083)" fill="#0096af"/><path d="M748.963,70.186c0-1-.019-1.841-.074-2.59h1.926l.114,1.3h.05a3.14,3.14,0,0,1,2.766-1.5c1.521,0,3.088.983,3.088,3.737v5.159h-2.194V71.381c0-1.25-.463-2.2-1.664-2.2a1.841,1.841,0,0,0-1.71,1.291,2.125,2.125,0,0,0-.089.713v5.106h-2.213Z" transform="translate(-506.788 10.083)" fill="#0096af"/><path d="M761.343,72.044c-1.548-.039-3.031.3-3.031,1.622a1.153,1.153,0,0,0,1.248,1.254,1.782,1.782,0,0,0,1.713-1.2,1.5,1.5,0,0,0,.07-.475ZM763.49,74.2a14.774,14.774,0,0,0,.12,2.091h-1.979l-.144-.964h-.054a3.237,3.237,0,0,1-2.568,1.16,2.58,2.58,0,0,1-2.733-2.591c0-2.194,1.945-3.3,5.16-3.287v-.137c0-.577-.234-1.525-1.77-1.525a4.58,4.58,0,0,0-2.336.647l-.432-1.432A6.317,6.317,0,0,1,759.9,67.4c2.783,0,3.59,1.77,3.59,3.662Z" transform="translate(-504.715 10.083)" fill="#0096af"/><path d="M769.187,71.08a2.134,2.134,0,0,0-.071-.587,1.825,1.825,0,0,0-1.785-1.414c-1.235,0-2.145,1.074-2.145,2.837,0,1.486.748,2.683,2.125,2.683a1.884,1.884,0,0,0,1.786-1.325,3.69,3.69,0,0,0,.089-.787Zm2.2,3.948c0,1.82-.376,3.118-1.283,3.939a5.012,5.012,0,0,1-3.361,1.056,6.088,6.088,0,0,1-3.031-.7l.482-1.66a5.283,5.283,0,0,0,2.533.661,2.309,2.309,0,0,0,2.5-2.621v-.753h-.034a2.938,2.938,0,0,1-2.536,1.285c-2.163,0-3.7-1.785-3.7-4.252,0-2.854,1.855-4.588,3.944-4.588a2.743,2.743,0,0,1,2.52,1.36h.035l.089-1.16h1.911c-.036.59-.072,1.3-.072,2.5Z" transform="translate(-502.768 10.083)" fill="#0096af"/><path d="M776.581,71.021a1.866,1.866,0,0,0-1.8-2.122,2.152,2.152,0,0,0-2.017,2.122ZM772.76,72.56c.054,1.57,1.285,2.251,2.682,2.251a6.531,6.531,0,0,0,2.406-.392l.319,1.516a8.111,8.111,0,0,1-3.03.555,4.126,4.126,0,0,1-4.484-4.414c0-2.4,1.463-4.678,4.248-4.678,2.842,0,3.754,2.322,3.754,4.233a5.417,5.417,0,0,1-.074.929Z" transform="translate(-500.565 10.083)" fill="#0096af"/><path d="M778.072,70.186c0-1-.018-1.841-.071-2.59h1.89l.091,1.285h.057a3,3,0,0,1,2.677-1.484,2.5,2.5,0,0,1,2.407,1.611h.044a3.226,3.226,0,0,1,1.066-1.091,2.948,2.948,0,0,1,1.752-.52c1.446,0,2.907.983,2.907,3.771v5.125h-2.137v-4.8c0-1.449-.5-2.305-1.552-2.305a1.674,1.674,0,0,0-1.539,1.164,3.152,3.152,0,0,0-.107.731v5.215H783.41V71.255c0-1.215-.475-2.071-1.5-2.071a1.718,1.718,0,0,0-1.569,1.25,1.844,1.844,0,0,0-.125.715v5.145h-2.145Z" transform="translate(-498.645 10.083)" fill="#0096af"/><path d="M795.034,71.021a1.862,1.862,0,0,0-1.8-2.122,2.153,2.153,0,0,0-2.022,2.122Zm-3.823,1.538c.058,1.57,1.289,2.251,2.679,2.251a6.609,6.609,0,0,0,2.416-.392l.321,1.516a8.176,8.176,0,0,1-3.036.555,4.127,4.127,0,0,1-4.482-4.414c0-2.4,1.461-4.678,4.246-4.678,2.843,0,3.754,2.322,3.754,4.233a5.438,5.438,0,0,1-.073.929Z" transform="translate(-495.384 10.083)" fill="#0096af"/><path d="M796.523,70.186c0-1-.013-1.841-.065-2.59h1.929l.1,1.3h.054a3.14,3.14,0,0,1,2.767-1.5c1.523,0,3.093.983,3.093,3.737v5.159h-2.2V71.381c0-1.25-.467-2.2-1.66-2.2a1.842,1.842,0,0,0-1.715,1.291,2.266,2.266,0,0,0-.088.713v5.106h-2.219Z" transform="translate(-493.226 10.083)" fill="#0096af"/><path d="M806.785,65.828v2.23h2.083V69.7h-2.083v3.839c0,1.052.285,1.608,1.125,1.608a2.715,2.715,0,0,0,.851-.107l.04,1.677a4.752,4.752,0,0,1-1.592.234,2.549,2.549,0,0,1-1.889-.733,3.461,3.461,0,0,1-.679-2.432V69.7h-1.247V68.058h1.247V66.45Z" transform="translate(-491.189 9.622)" fill="#0096af"/></g></svg>